<svg id="visual" viewBox="0 0 1000 600" width="1000" height="600" xmlns="http://www.w3.org/2000/svg" xmlns:xlink="http://www.w3.org/1999/xlink" version="1.1"><path d="M0 462L16.7 457.7C33.3 453.3 66.7 444.7 100 436.8C133.3 429 166.7 422 200 422.3C233.3 422.7 266.7 430.3 300 437.5C333.3 444.7 366.7 451.3 400 453.7C433.3 456 466.7 454 500 449.3C533.3 444.7 566.7 437.3 600 440C633.3 442.7 666.7 455.3 700 458.8C733.3 462.3 766.7 456.7 800 457C833.3 457.3 866.7 463.7 900 462C933.3 460.3 966.7 450.7 983.3 445.8L1000 441L1000 601L983.3 601C966.7 601 933.3 601 900 601C866.7 601 833.3 601 800 601C766.7 601 733.3 601 700 601C666.7 601 633.3 601 600 601C566.7 601 533.3 601 500 601C466.7 601 433.3 601 400 601C366.7 601 333.3 601 300 601C266.7 601 233.3 601 200 601C166.7 601 133.3 601 100 601C66.7 601 33.3 601 16.7 601L0 601Z" fill="#2b2d42"></path><path d="M0 471L16.7 472.8C33.3 474.7 66.7 478.3 100 484.8C133.3 491.3 166.7 500.7 200 504.5C233.3 508.3 266.7 506.7 300 505.2C333.3 503.7 366.7 502.3 400 495.7C433.3 489 466.7 477 500 479.5C533.3 482 566.7 499 600 506.3C633.3 513.7 666.7 511.3 700 511C733.3 510.7 766.7 512.3 800 512.7C833.3 513 866.7 512 900 511.3C933.3 510.7 966.7 510.3 983.3 510.2L1000 510L1000 601L983.3 601C966.7 601 933.3 601 900 601C866.7 601 833.3 601 800 601C766.7 601 733.3 601 700 601C666.7 601 633.3 601 600 601C566.7 601 533.3 601 500 601C466.7 601 433.3 601 400 601C366.7 601 333.3 601 300 601C266.7 601 233.3 601 200 601C166.7 601 133.3 601 100 601C66.7 601 33.3 601 16.7 601L0 601Z" fill="#8d99ae"></path><path d="M0 528L16.7 531.5C33.3 535 66.7 542 100 545.7C133.3 549.3 166.7 549.7 200 549.8C233.3 550 266.7 550 300 547.3C333.3 544.7 366.7 539.3 400 541.3C433.3 543.3 466.7 552.7 500 550.7C533.3 548.7 566.7 535.3 600 533.3C633.3 531.3 666.7 540.7 700 546C733.3 551.3 766.7 552.7 800 547.5C833.3 542.3 866.7 530.7 900 529.8C933.3 529 966.7 539 983.3 544L1000 549L1000 601L983.3 601C966.7 601 933.3 601 900 601C866.7 601 833.3 601 800 601C766.7 601 733.3 601 700 601C666.7 601 633.3 601 600 601C566.7 601 533.3 601 500 601C466.7 601 433.3 601 400 601C366.7 601 333.3 601 300 601C266.7 601 233.3 601 200 601C166.7 601 133.3 601 100 601C66.7 601 33.3 601 16.7 601L0 601Z" fill="#8d99ae"></path></svg>